<svg xmlns="http://www.w3.org/2000/svg" width="1536" height="1024" viewBox="0 0 1536 1024"><rect width="1536" height="1024" fill="#f8eee8"/><circle cx="1240" cy="180" r="220" fill="#e7eef2"/><rect x="120" y="170" width="500" height="680" rx="40" fill="#fff" stroke="#292a2e" stroke-width="10"/><rect x="175" y="240" width="390" height="470" rx="28" fill="#e7eef2"/><circle cx="370" cy="770" r="25" fill="#292a2e"/><g transform="translate(820 220)"><ellipse cx="230" cy="350" rx="240" ry="280" fill="#fff8eb" stroke="#292a2e" stroke-width="10"/><circle cx="70" cy="125" r="75" fill="#fff8eb" stroke="#292a2e" stroke-width="10"/><circle cx="390" cy="125" r="75" fill="#fff8eb" stroke="#292a2e" stroke-width="10"/><circle cx="160" cy="300" r="22" fill="#292a2e"/><circle cx="300" cy="300" r="22" fill="#292a2e"/><ellipse cx="230" cy="350" rx="35" ry="28" fill="#292a2e"/><path d="M195 395 Q230 430 265 395" fill="none" stroke="#292a2e" stroke-width="10" stroke-linecap="round"/><circle cx="120" cy="380" r="42" fill="#f6e5e7"/><circle cx="340" cy="380" r="42" fill="#f6e5e7"/><rect x="350" y="500" width="230" height="130" rx="22" fill="#fff" stroke="#292a2e" stroke-width="8"/><text x="465" y="555" font-family="Arial,sans-serif" font-size="30" text-anchor="middle" fill="#8b435b">UPGRADE?</text><text x="465" y="600" font-family="Arial,sans-serif" font-size="24" text-anchor="middle" fill="#292a2e">price · camera · battery</text></g><text x="120" y="110" font-family="Georgia,serif" font-size="48" font-weight="700" fill="#292a2e">Trandory.</text></svg>